<svg xmlns="http://www.w3.org/2000/svg" viewBox="0 0 148.33 35"><defs><style>.cls-1{fill:#231f20;}</style></defs><title>br-k</title><g id="Layer_2" data-name="Layer 2"><g id="Layer_1-2" data-name="Layer 1"><path class="cls-1" d="M0,26.71V0H5.3V9c.89-1.42,3.07-2.71,6-2.71,5.83,0,9.18,4.49,9.18,10.39s-3.72,10.51-9.38,10.51a6.72,6.72,0,0,1-5.9-2.91v2.43ZM10.19,11.1c-2.71,0-5,2-5,5.62s2.26,5.66,5,5.66,4.93-2,4.93-5.66S12.94,11.1,10.19,11.1Z"/><path class="cls-1" d="M27.86,15.26l4.9-.72c1.13-.16,1.49-.73,1.49-1.42,0-1.41-1.09-2.59-3.35-2.59a3.54,3.54,0,0,0-3.81,3.24l-4.77-1c.33-3.12,3.2-6.55,8.54-6.55,6.3,0,8.65,3.56,8.65,7.56v9.79a22.5,22.5,0,0,0,.24,3.15H34.82a13.69,13.69,0,0,1-.2-2.39,6.65,6.65,0,0,1-5.87,3c-4.24,0-6.83-2.88-6.83-6C21.92,17.73,24.55,15.75,27.86,15.26Zm6.39,3.4v-.89l-4.49.69A2.51,2.51,0,0,0,27.3,21a2.33,2.33,0,0,0,2.59,2.3C32.15,23.27,34.25,22.18,34.25,18.66Z"/><path class="cls-1" d="M47.88,26.71H42.5V6.81h5.22V9.28a6.61,6.61,0,0,1,5.74-3c4.93,0,7.2,3.52,7.2,7.88V26.71H55.28V15.1c0-2.22-1.09-4-3.68-4-2.34,0-3.72,1.82-3.72,4.12Z"/><path class="cls-1" d="M75,12.15A8.27,8.27,0,0,0,73.4,12c-2.75,0-5.14,1.33-5.14,5.62v9.1H62.88V6.81H68.1v3c1.21-2.63,4-3.12,5.66-3.12A12.52,12.52,0,0,1,75,6.73Z"/><path class="cls-1" d="M94.83,21c-1,3.43-4.16,6.31-9.06,6.31-5.46,0-10.27-3.93-10.27-10.64,0-6.35,4.69-10.47,9.79-10.47,6.14,0,9.82,3.92,9.82,10.31,0,.77-.08,1.58-.08,1.66H80.8a4.84,4.84,0,0,0,5,4.53,4.39,4.39,0,0,0,4.53-3Zm-5-6.51c-.08-2-1.38-3.93-4.45-3.93a4.31,4.31,0,0,0-4.45,3.93Z"/><path class="cls-1" d="M101.18,26.51a4.45,4.45,0,0,0,4.65,3.76c3.4,0,5.3-1.7,5.3-5.54V23.27c-.81,1.3-2.67,2.55-5.54,2.55-5.3,0-9.26-4.08-9.26-9.67,0-5.25,3.8-9.7,9.26-9.7,3.15,0,5,1.37,5.66,2.71V6.81h5.18V24.57C116.43,30,113.47,35,106,35c-5.46,0-9.1-3.4-9.66-7.2Zm10-10.36a4.74,4.74,0,1,0-9.46,0c0,3.12,2,5.06,4.77,5.06S111.21,19.23,111.21,16.15Z"/><path class="cls-1" d="M119.46,26.71V6.81h5.38v19.9Z"/><path class="cls-1" d="M148.33,16.76a10.44,10.44,0,1,1-20.87,0,10.44,10.44,0,1,1,20.87,0Zm-5.38,0c0-3.76-2.42-5.66-5-5.66s-5.06,1.9-5.06,5.66,2.43,5.66,5.06,5.66S143,20.52,143,16.76Z"/></g></g></svg>